<?xml version="1.0" encoding="utf-8"?>
<svg version="1.0" xmlns="http://www.w3.org/2000/svg" width="1179px" height="826px" viewBox="-79.88 299.905 953.979 670.726" style="" preserveAspectRatio="none" xmlns:bx="https://boxy-svg.com"><defs><bx:export><bx:file format="svg" width="1179" height="826" path="default-listing.svg"/></bx:export></defs><g fill="#7E7BBDFF" stroke="#7E7BBDFF" style="" transform="matrix(0.997369, 0, 0, 1.017824, 0.007409, 423.865729)"><path d="M 160.096 59.507 C 143.476 64.689 132.136 83.618 137.108 97.881 C 138.406 101.602 143.067 104.418 146.300 103.433 C 151.006 102.001 151.989 100.139 151.775 93.062 C 151.533 85.033 153.508 80.995 159.860 76.531 C 163.388 74.051 165.109 73.533 169.817 73.533 C 176.992 73.533 181.984 76.410 185.642 82.652 C 187.924 86.546 188.196 87.902 187.728 93.059 C 187.433 96.320 186.360 100.393 185.345 102.109 C 182.657 106.656 176.024 111.059 170.892 111.705 C 168.476 112.008 165.488 113.178 164.250 114.303 C 162.162 116.202 162.000 117.188 162.000 128.043 L 162.000 139.737 110.250 168.521 C 81.056 184.759 56.858 198.860 54.733 200.872 C 49.378 205.942 46.995 211.410 47.022 218.566 C 47.049 226.004 49.404 231.343 54.802 236.210 C 62.718 243.347 57.813 243.069 170.570 242.769 L 271.500 242.500 277.150 239.725 C 292.761 232.059 295.655 212.172 282.872 200.392 C 280.043 197.785 183.790 142.392 178.684 140.432 C 177.336 139.915 177.000 138.442 177.000 133.045 L 177.000 126.304 181.250 124.452 C 192.142 119.708 199.456 111.513 202.562 100.572 C 205.973 88.561 202.849 77.832 193.041 67.874 C 184.174 58.872 172.027 55.787 160.096 59.507 M 221.500 182.298 C 247.900 197.150 270.738 210.442 272.250 211.837 C 275.884 215.189 276.028 220.694 272.587 224.694 L 270.174 227.500 172.837 227.795 C 119.302 227.957 73.653 227.827 71.396 227.506 C 64.287 226.493 60.544 220.930 62.993 215.017 C 64.610 211.113 65.863 210.356 121.498 179.669 C 162.163 157.239 169.801 153.355 171.498 154.245 C 172.599 154.823 195.100 167.447 221.500 182.298 "/></g><g fill="#7E7BBDFF" stroke="#7E7BBDFF" style="" transform="matrix(0.997369, 0, 0, 1.017824, 0.007409, 423.865729)"><path d="M 358.372 36.750 C 358.650 37.713 365.685 65.275 374.004 98.000 C 382.322 130.725 389.567 159.188 390.103 161.250 L 391.077 165.000 405.346 165.000 L 419.616 165.000 431.503 121.340 L 443.391 77.680 451.720 107.090 C 456.300 123.265 461.783 142.800 463.904 150.500 L 467.759 164.500 481.880 164.777 C 489.646 164.930 496.000 164.882 496.000 164.670 C 496.000 164.458 502.975 135.807 511.500 101.000 C 520.025 66.193 527.000 37.104 527.000 36.358 C 527.000 35.290 524.447 35.000 515.039 35.000 L 503.077 35.000 502.127 38.750 C 501.604 40.813 496.547 61.979 490.888 85.787 L 480.601 129.074 472.758 100.787 C 468.445 85.229 462.741 64.400 460.082 54.500 L 455.249 36.500 443.256 36.220 L 431.263 35.941 427.501 51.720 C 423.740 67.490 408.030 128.299 407.605 128.726 C 407.482 128.851 402.262 107.813 396.005 81.976 L 384.629 35.000 371.247 35.000 C 358.976 35.000 357.907 35.145 358.372 36.750 "/></g><g fill="#7E7BBDFF" stroke="#7E7BBDFF" style="" transform="matrix(0.997369, 0, 0, 1.017824, 0.007409, 423.865729)"><path d="M 745.454 221.988 C 742.537 223.144 738.212 226.138 735.204 229.083 L 730.000 234.179 730.000 228.089 L 730.000 222.000 718.500 222.000 L 707.000 222.000 707.000 286.500 L 707.000 351.000 719.500 351.000 L 732.000 351.000 732.000 329.396 L 732.000 307.793 735.699 311.041 C 751.121 324.581 776.694 320.191 788.903 301.907 C 794.771 293.120 796.189 287.704 796.732 272.000 C 797.256 256.863 796.021 249.948 791.032 240.064 C 787.655 233.373 779.725 225.662 773.217 222.741 C 766.336 219.651 752.311 219.271 745.454 221.988 M 760.619 242.615 C 768.241 246.355 772.321 256.160 772.180 270.396 C 772.039 284.623 767.906 293.171 759.264 297.107 C 751.007 300.869 740.803 297.912 736.020 290.371 C 729.269 279.725 729.286 259.363 736.057 248.408 C 740.744 240.824 751.704 238.239 760.619 242.615 "/></g><g fill="#7E7BBDFF" stroke="#7E7BBDFF" style="" transform="matrix(0.997369, 0, 0, 1.017824, 0.007409, 423.865729)"><path d="M 319.522 120.975 C 317.429 123.288 317.660 126.177 321.159 141.500 C 324.133 154.525 324.428 183.521 321.724 197.000 C 317.441 218.341 307.609 241.886 295.624 259.500 C 276.670 287.356 239.585 311.414 202.130 320.153 C 189.372 323.130 161.633 323.828 147.832 321.521 C 121.198 317.067 99.779 307.780 77.659 291.095 C 66.815 282.915 52.640 269.696 55.500 270.430 C 67.305 273.459 83.692 277.000 85.909 277.000 C 89.491 277.000 92.000 274.187 92.000 270.171 C 92.000 264.660 89.884 263.658 66.387 258.044 C 54.349 255.168 41.699 252.090 38.276 251.205 C 29.374 248.903 26.591 250.015 26.231 256.019 C 26.083 258.484 27.698 273.434 29.819 289.242 C 34.110 321.218 34.493 322.348 40.850 321.799 C 43.143 321.600 44.923 320.661 46.154 319.000 C 47.960 316.564 47.956 316.053 46.003 299.001 C 44.902 289.377 44.000 281.364 44.000 281.196 C 44.000 281.027 45.012 281.997 46.250 283.353 C 50.460 287.964 62.475 298.288 71.500 305.049 C 83.374 313.945 96.089 321.101 108.988 326.147 C 171.272 350.513 240.285 336.336 289.296 289.109 C 323.902 255.762 343.093 203.592 338.075 156.500 C 336.343 140.247 332.341 122.894 329.829 120.750 C 327.055 118.383 321.764 118.498 319.522 120.975 "/></g><g fill="#7E7BBDFF" stroke="#7E7BBDFF" transform="matrix(0.997369, 0, 0, 1.017824, 1.839724, 433.215216)" style=""><path d="M 144.000 2.447 C 114.317 6.722 86.520 18.660 63.774 36.898 C 54.033 44.710 39.185 59.910 32.481 68.935 C 16.437 90.534 5.426 118.103 1.901 145.500 C -0.836 166.776 2.886 204.939 8.266 210.750 C 11.034 213.741 15.062 213.628 18.022 210.476 L 20.394 207.952 17.953 193.726 C 14.710 174.821 14.696 154.384 17.916 139.000 C 28.111 90.288 56.310 53.442 100.309 31.345 C 134.241 14.303 177.020 11.192 214.611 23.034 C 227.962 27.240 248.454 37.507 259.876 45.715 C 268.169 51.674 288.537 69.797 287.785 70.548 C 287.628 70.704 280.832 69.544 272.681 67.969 C 256.305 64.804 254.058 65.031 251.977 70.056 C 250.557 73.485 251.440 76.617 254.326 78.387 C 255.522 79.121 268.556 82.116 283.290 85.043 L 310.080 90.364 312.115 88.329 L 314.150 86.294 310.536 58.397 C 308.548 43.054 306.654 28.348 306.328 25.718 C 305.897 22.249 305.047 20.395 303.232 18.968 C 300.041 16.458 297.927 16.483 294.635 19.073 C 292.449 20.792 292.000 21.954 292.000 25.899 C 292.000 30.461 294.382 49.906 295.554 54.909 C 295.989 56.766 294.211 55.521 287.809 49.485 C 262.416 25.543 232.644 10.288 198.000 3.468 C 186.444 1.194 156.618 0.629 144.000 2.447 "/></g><g fill="#7E7BBDFF" stroke="#7E7BBDFF" style="" transform="matrix(0.997369, 0, 0, 1.017824, 0.007409, 423.865729)"><path d="M 556.000 69.886 C 540.629 74.855 531.843 83.675 526.363 99.634 C 524.100 106.224 523.662 109.203 523.661 118.000 C 523.656 149.196 543.871 168.846 573.798 166.736 C 598.586 164.989 614.337 147.992 615.720 121.500 C 617.099 95.074 604.413 75.250 582.465 69.533 C 574.665 67.501 562.890 67.658 556.000 69.886 M 580.785 91.239 C 591.071 98.046 594.790 120.643 588.068 135.483 C 581.957 148.972 566.795 151.959 556.248 141.751 C 543.929 129.828 546.528 98.336 560.500 90.237 C 566.078 87.004 575.056 87.448 580.785 91.239 "/></g><g fill="#7E7BBDFF" stroke="#7E7BBDFF" style="" transform="matrix(0.997369, 0, 0, 1.017824, 0.007409, 423.865729)"><path d="M 470.000 223.792 C 470.000 224.778 475.200 243.565 481.557 265.542 C 487.913 287.519 493.795 307.863 494.628 310.750 L 496.142 316.000 508.496 316.000 L 520.850 316.000 522.221 311.250 C 522.975 308.638 526.715 295.169 530.532 281.320 L 537.472 256.140 545.572 283.320 C 550.027 298.269 553.980 311.738 554.355 313.250 L 555.038 316.000 567.491 316.000 L 579.944 316.000 581.587 310.250 C 583.501 303.552 605.839 226.342 606.612 223.750 C 607.090 222.149 606.073 222.000 594.651 222.000 L 582.166 222.000 577.540 241.250 C 574.996 251.838 571.503 266.350 569.780 273.500 C 567.406 283.344 566.482 285.893 565.975 284.000 C 565.606 282.625 561.554 268.113 556.970 251.750 L 548.636 222.000 537.837 222.000 C 527.247 222.000 527.026 222.047 526.431 224.421 C 526.096 225.752 522.363 239.907 518.134 255.875 L 510.445 284.910 502.607 253.455 L 494.769 222.000 482.385 222.000 C 471.145 222.000 470.000 222.166 470.000 223.792 "/></g><g fill="#7E7BBDFF" stroke="#7E7BBDFF" style="" transform="matrix(0.997369, 0, 0, 1.017824, 0.007409, 423.865729)"><path d="M 406.500 186.631 C 395.401 188.351 386.725 192.306 379.758 198.823 C 368.534 209.322 365.202 225.636 371.440 239.546 C 376.755 251.398 385.004 256.526 409.704 263.331 C 426.900 268.068 430.061 269.386 434.767 273.783 C 440.198 278.855 440.281 286.333 434.974 292.377 C 428.542 299.703 411.660 301.160 400.780 295.329 C 396.248 292.901 395.075 291.620 392.500 286.288 L 389.500 280.077 377.250 280.038 C 370.513 280.017 365.011 280.338 365.024 280.750 C 365.038 281.163 365.504 283.475 366.061 285.888 C 369.801 302.112 383.617 314.610 401.458 317.908 C 409.689 319.429 423.192 319.241 431.500 317.489 C 441.689 315.340 449.958 310.920 455.851 304.473 C 462.731 296.945 465.354 289.934 465.387 278.991 C 465.445 259.520 455.957 251.401 421.500 241.437 C 404.078 236.399 399.785 234.334 396.901 229.605 C 394.574 225.790 394.426 218.780 396.595 215.109 C 401.574 206.679 416.687 203.746 428.500 208.916 C 433.316 211.024 438.863 217.067 439.666 221.082 L 440.250 224.000 451.755 224.000 L 463.260 224.000 462.775 219.699 C 461.983 212.673 457.282 203.537 451.838 198.445 C 443.817 190.943 433.442 187.248 418.500 186.572 C 413.550 186.349 408.150 186.375 406.500 186.631 "/></g><g fill="#7E7BBDFF" stroke="#7E7BBDFF" style="" transform="matrix(0.997369, 0, 0, 1.017824, 0.007409, 423.865729)"><path d="M 638.500 221.409 C 626.819 224.303 617.349 231.778 613.990 240.755 C 612.896 243.681 612.000 247.183 612.000 248.538 L 612.000 251.000 622.875 251.000 L 633.750 251.000 634.333 248.083 C 634.685 246.327 636.384 244.046 638.598 242.357 C 641.615 240.057 643.473 239.493 648.890 239.235 C 656.191 238.887 659.180 239.982 662.261 244.132 C 664.409 247.026 666.457 255.943 665.251 257.149 C 664.833 257.567 658.867 258.631 651.995 259.512 C 626.703 262.755 618.586 265.750 612.410 274.122 C 605.131 283.988 606.989 301.741 616.107 309.451 C 617.973 311.029 621.975 313.483 625.000 314.905 C 629.746 317.135 631.803 317.483 640.000 317.438 C 650.924 317.379 655.580 315.608 662.581 308.853 L 666.663 304.915 667.903 310.457 L 669.143 316.000 679.572 316.000 L 690.000 316.000 690.000 282.605 C 690.000 251.940 689.835 248.677 687.983 242.679 C 682.698 225.570 660.397 215.983 638.500 221.409 M 665.785 280.758 C 664.940 292.574 659.728 298.657 649.549 299.707 C 639.488 300.745 633.000 295.953 633.000 287.484 C 633.000 282.734 634.357 280.385 638.280 278.348 C 641.140 276.861 655.574 274.428 663.384 274.115 L 666.269 274.000 665.785 280.758 "/></g><g fill="#7E7BBDFF" stroke="#7E7BBDFF" style="" transform="matrix(0.997369, 0, 0, 1.017824, 0.007409, 423.865729)"><path d="M 696.000 100.000 L 696.000 165.000 709.000 165.000 L 722.000 165.000 722.000 149.708 L 722.000 134.416 726.294 130.202 C 729.646 126.913 730.853 126.253 731.794 127.194 C 732.457 127.857 733.000 128.779 733.000 129.242 C 733.000 129.705 734.364 131.978 736.031 134.292 C 740.972 141.153 746.075 149.133 749.275 155.000 C 754.829 165.186 754.449 165.000 769.674 165.000 C 777.003 165.000 783.000 164.627 783.000 164.170 C 783.000 163.714 777.529 155.276 770.842 145.420 C 764.155 135.564 755.877 123.173 752.445 117.886 L 746.207 108.271 762.577 89.886 L 778.948 71.500 765.687 71.223 L 752.427 70.946 737.463 87.942 L 722.500 104.938 722.237 69.969 L 721.974 35.000 708.987 35.000 L 696.000 35.000 696.000 100.000 "/></g><g fill="#7E7BBDFF" stroke="#7E7BBDFF" style="" transform="matrix(0.997369, 0, 0, 1.017824, 0.007409, 423.865729)"><path d="M 666.223 70.671 C 661.909 72.198 656.850 76.395 653.775 81.000 C 652.125 83.470 652.104 83.426 652.052 77.250 L 652.000 71.000 641.000 71.000 L 630.000 71.000 630.000 118.000 L 630.000 165.000 641.944 165.000 L 653.889 165.000 654.194 135.750 C 654.481 108.366 654.636 106.206 656.631 101.892 C 660.674 93.149 669.093 89.366 678.590 92.025 C 684.616 93.712 684.965 93.094 684.985 80.725 C 685.000 71.147 684.948 70.931 682.435 69.975 C 678.771 68.582 671.209 68.907 666.223 70.671 "/></g></svg>